<svg width="600" height="600" viewBox="0 0 600 600" fill="none" xmlns="http://www.w3.org/2000/svg">
<path d="M242.009 229.796V111.562C242.009 68.0584 277.603 32.4641 321.107 32.4641H342.439C385.943 32.4641 421.537 68.0584 421.537 111.562V229.796" stroke="#A7A9AC" stroke-width="18.5146" stroke-miterlimit="10"/>
<path d="M13.0184 23.2068H536.026V576.075H13.0184V23.2068ZM13.0184 576.075H536.026V23.2068H13.0184V576.075ZM526.769 527.17L477.516 566.405L164.272 527.17V157.014H526.769V527.17Z" fill="#F0F1F1"/>
<path d="M526.769 527.171L477.516 566.405L164.272 527.171V157.014H526.769V527.171Z" stroke="#A7A9AC" stroke-width="18.5146" stroke-miterlimit="10"/>
<path d="M13.0184 23.2068H536.028V576.075H13.0184V23.2068ZM13.0184 576.075H536.028V23.2068H13.0184V576.075ZM471.183 564.229L108.685 527.17V157.012H471.183V564.229Z" fill="#F0F1F1"/>
<path d="M471.183 564.229L108.685 527.17V157.012H471.183V564.229Z" stroke="#A7A9AC" stroke-width="18.5146" stroke-miterlimit="10"/>
<path d="M177.156 229.796V111.562C177.156 68.0584 212.75 32.4641 256.254 32.4641H277.586C321.09 32.4641 356.681 68.0584 356.681 111.562V229.796" stroke="#A7A9AC" stroke-width="18.5146" stroke-miterlimit="10"/>
<path d="M13.0184 23.2068H536.026V576.075H13.0184V23.2068ZM13.0184 576.075H536.026V23.2068H13.0184V576.075ZM376.793 226.897C376.793 237.678 368.051 246.419 357.268 246.419C346.487 246.419 337.748 237.678 337.748 226.897C337.748 216.114 346.487 207.375 357.268 207.375C368.051 207.375 376.793 216.114 376.793 226.897Z" fill="#A7A9AC"/>
<path d="M13.0184 23.2068H536.026V576.075H13.0184V23.2068ZM13.0184 576.075H536.026V23.2068H13.0184V576.075ZM164.149 443.072L149.469 485.183L18.9431 438.902L74.4017 149.484L257.678 184.604L204.582 456.88L164.149 443.072Z" fill="white"/>
<path d="M164.149 443.072L149.469 485.183L18.9431 438.902L74.4017 149.484L257.678 184.604L204.582 456.88L164.149 443.072Z" stroke="#A7A9AC" stroke-width="11.853" stroke-linejoin="round"/>
<path d="M13.0184 23.2068H536.026V576.075H13.0184V23.2068ZM13.0184 576.075H536.026V23.2068H13.0184V576.075ZM149.469 485.183L204.583 456.88Z" fill="white"/>
<path d="M149.469 485.183L204.583 456.88" stroke="#A7A9AC" stroke-width="11.853" stroke-linecap="round" stroke-linejoin="round"/>
<g opacity="0.3">
<path opacity="0.3" d="M92.7589 197.19L99.0613 198.69" stroke="#A7A9AC" stroke-width="3.70292" stroke-linejoin="round"/>
</g>
<g opacity="0.3">
<path opacity="0.3" d="M104.405 199.962L208.627 224.76" stroke="#A7A9AC" stroke-width="3.70292" stroke-linejoin="round" stroke-dasharray="12.82 5.49"/>
</g>
<g opacity="0.3">
<path opacity="0.3" d="M211.299 225.394L217.601 226.897" stroke="#A7A9AC" stroke-width="3.70292" stroke-linejoin="round"/>
</g>
<g opacity="0.3">
<path opacity="0.3" d="M88.5117 222.287L94.7734 223.949" stroke="#A7A9AC" stroke-width="3.70292" stroke-linejoin="round"/>
</g>
<g opacity="0.3">
<path opacity="0.3" d="M100.043 225.345L202.784 252.599" stroke="#A7A9AC" stroke-width="3.70292" stroke-linejoin="round" stroke-dasharray="12.72 5.45"/>
</g>
<g opacity="0.3">
<path opacity="0.3" d="M205.418 253.297L211.68 254.959" stroke="#A7A9AC" stroke-width="3.70292" stroke-linejoin="round"/>
</g>
<g opacity="0.3">
<path opacity="0.3" d="M82.1501 248.513L88.4044 250.209" stroke="#A7A9AC" stroke-width="3.70292" stroke-linejoin="round"/>
</g>
<g opacity="0.3">
<path opacity="0.3" d="M93.6902 251.644L196.776 279.595" stroke="#A7A9AC" stroke-width="3.70292" stroke-linejoin="round" stroke-dasharray="12.78 5.48"/>
</g>
<g opacity="0.3">
<path opacity="0.3" d="M199.418 280.31L205.672 282.006" stroke="#A7A9AC" stroke-width="3.70292" stroke-linejoin="round"/>
</g>
<g opacity="0.3">
<path opacity="0.3" d="M76.0496 273.609L82.2557 275.479" stroke="#A7A9AC" stroke-width="3.70292" stroke-linejoin="round"/>
</g>
<g opacity="0.3">
<path opacity="0.3" d="M87.536 277.068L190.485 308.061" stroke="#A7A9AC" stroke-width="3.70292" stroke-linejoin="round" stroke-dasharray="12.86 5.51"/>
</g>
<g opacity="0.3">
<path opacity="0.3" d="M193.121 308.854L199.327 310.724" stroke="#A7A9AC" stroke-width="3.70292" stroke-linejoin="round"/>
</g>
<g opacity="0.3">
<path opacity="0.3" d="M71.0283 300.965L77.2344 302.823" stroke="#A7A9AC" stroke-width="3.70292" stroke-linejoin="round"/>
</g>
<g opacity="0.3">
<path opacity="0.3" d="M82.4963 304.397L185.145 335.124" stroke="#A7A9AC" stroke-width="3.70292" stroke-linejoin="round" stroke-dasharray="12.82 5.5"/>
</g>
<g opacity="0.3">
<path opacity="0.3" d="M187.778 335.913L193.984 337.77" stroke="#A7A9AC" stroke-width="3.70292" stroke-linejoin="round"/>
</g>
<path d="M146.572 312.033V338.609" stroke="#656565" stroke-width="9.2573" stroke-miterlimit="10"/>
<path d="M98.3955 312.033V338.609" stroke="#656565" stroke-width="9.2573" stroke-miterlimit="10"/>
<path d="M92.2432 388.159C92.2432 388.159 114.776 364.801 150.243 377.661" stroke="#656565" stroke-width="5.073" stroke-miterlimit="10"/>
</svg>
