<svg width="600" height="600" fill="none" xmlns="http://www.w3.org/2000/svg"><path d="M242.009 229.796V111.562c0-43.504 35.594-79.098 79.098-79.098h21.332c43.504 0 79.098 35.594 79.098 79.098v118.234" stroke="#A7A9AC" stroke-width="18.515" stroke-miterlimit="10"/><path d="M13.018 23.207h523.008v552.868H13.018V23.207zm0 552.868h523.008V23.207H13.018v552.868zM526.77 527.17l-49.253 39.235-313.244-39.235V157.014H526.77V527.17z" fill="#F0F1F1"/><path d="M526.769 527.171l-49.253 39.234-313.244-39.234V157.014h362.497v370.157z" stroke="#A7A9AC" stroke-width="18.515" stroke-miterlimit="10"/><path d="M13.018 23.207h523.01v552.868H13.018V23.207zm0 552.868h523.01V23.207H13.018v552.868zm458.165-11.846L108.685 527.17V157.012h362.498v407.217z" fill="#F0F1F1"/><path d="M471.183 564.229L108.685 527.17V157.012h362.498v407.217z" stroke="#A7A9AC" stroke-width="18.515" stroke-miterlimit="10"/><path d="M177.156 229.796V111.562c0-43.504 35.594-79.098 79.098-79.098h21.332c43.504 0 79.095 35.594 79.095 79.098v118.234" stroke="#A7A9AC" stroke-width="18.515" stroke-miterlimit="10"/><path d="M13.018 23.207h523.008v552.868H13.018V23.207zm0 552.868h523.008V23.207H13.018v552.868zm363.775-349.178c0 10.781-8.742 19.522-19.525 19.522-10.781 0-19.52-8.741-19.52-19.522 0-10.783 8.739-19.522 19.52-19.522 10.783 0 19.525 8.739 19.525 19.522z" fill="#A7A9AC"/><path d="M13.018 23.207h523.008v552.868H13.018V23.207zm0 552.868h523.008V23.207H13.018v552.868zM164.15 443.072l-14.68 42.111-130.526-46.281 55.459-289.418 183.276 35.12-53.096 272.276-40.433-13.808z" fill="#fff"/><path d="M164.149 443.072l-14.68 42.111-130.526-46.281 55.459-289.418 183.276 35.12-53.096 272.276-40.433-13.808z" stroke="#A7A9AC" stroke-width="11.853" stroke-linejoin="round"/><path d="M13.018 23.207h523.008v552.868H13.018V23.207zm0 552.868h523.008V23.207H13.018v552.868zm136.451-90.892l55.114-28.303z" fill="#fff"/><path d="M149.469 485.183l55.114-28.303" stroke="#A7A9AC" stroke-width="11.853" stroke-linecap="round" stroke-linejoin="round"/><path opacity=".3" d="M92.759 197.19l6.302 1.5" stroke="#A7A9AC" stroke-width="3.703" stroke-linejoin="round"/><path opacity=".3" d="M104.405 199.962l104.222 24.798" stroke="#A7A9AC" stroke-width="3.703" stroke-linejoin="round" stroke-dasharray="12.82 5.49"/><path opacity=".3" d="M211.299 225.394l6.302 1.503m-129.089-4.61l6.261 1.662" stroke="#A7A9AC" stroke-width="3.703" stroke-linejoin="round"/><path opacity=".3" d="M100.043 225.345l102.741 27.254" stroke="#A7A9AC" stroke-width="3.703" stroke-linejoin="round" stroke-dasharray="12.72 5.45"/><path opacity=".3" d="M205.418 253.297l6.262 1.662m-129.53-6.446l6.254 1.696" stroke="#A7A9AC" stroke-width="3.703" stroke-linejoin="round"/><path opacity=".3" d="M93.69 251.644l103.086 27.951" stroke="#A7A9AC" stroke-width="3.703" stroke-linejoin="round" stroke-dasharray="12.78 5.48"/><path opacity=".3" d="M199.418 280.31l6.254 1.696M76.05 273.609l6.206 1.87" stroke="#A7A9AC" stroke-width="3.703" stroke-linejoin="round"/><path opacity=".3" d="M87.536 277.068l102.949 30.993" stroke="#A7A9AC" stroke-width="3.703" stroke-linejoin="round" stroke-dasharray="12.86 5.51"/><path opacity=".3" d="M193.121 308.854l6.206 1.87m-128.299-9.759l6.206 1.858" stroke="#A7A9AC" stroke-width="3.703" stroke-linejoin="round"/><path opacity=".3" d="M82.496 304.397l102.649 30.727" stroke="#A7A9AC" stroke-width="3.703" stroke-linejoin="round" stroke-dasharray="12.82 5.5"/><path opacity=".3" d="M187.778 335.913l6.206 1.857" stroke="#A7A9AC" stroke-width="3.703" stroke-linejoin="round"/><path d="M146.572 312.033v26.576m-48.177-26.576v26.576" stroke="#656565" stroke-width="9.257" stroke-miterlimit="10"/><path d="M92.243 388.159s22.533-23.358 58-10.498" stroke="#656565" stroke-width="5.073" stroke-miterlimit="10"/></svg>