<svg width="205" height="50" viewBox="0 0 205 50" fill="none" xmlns="http://www.w3.org/2000/svg">
<g clip-path="url(#clip0)">
<path d="M15.8415 25.1619C15.8224 23.433 16.3077 21.7373 17.2359 20.2897C18.1641 18.8421 19.4933 17.7079 21.0552 17.0308C22.617 16.3537 24.341 16.1643 26.0087 16.4865C27.6764 16.8087 29.2126 17.6281 30.4225 18.8407C31.6324 20.0534 32.4616 21.6047 32.8048 23.2979C33.1481 24.9912 32.9901 26.7502 32.3507 28.3518C31.7113 29.9534 30.6194 31.3256 29.2135 32.2944C27.8076 33.2631 26.1509 33.7848 24.4535 33.7933C22.191 33.8009 20.0171 32.8984 18.4044 31.2821C16.7917 29.6658 15.8707 27.4663 15.8415 25.1619Z" fill="#F3A12D" stroke="#231F20" stroke-width="0.54"/>
<path d="M15.7171 25.1197C9.234 30.3858 2.14264 30.1464 0.62207 25.1197C2.03205 20.3323 9.15106 20.2478 15.7171 25.1197Z" fill="#8E431E" stroke="#231F20" stroke-width="0.54" stroke-linejoin="round"/>
<path d="M24.3843 16.2912C19.2144 9.68741 19.4217 2.46409 24.3843 0.901154C29.029 2.32329 29.1534 9.57477 24.3843 16.2912Z" fill="#8E431E" stroke="#231F20" stroke-width="0.54" stroke-linejoin="round"/>
<path d="M33.0792 25.0915C39.5485 19.8113 46.6399 20.0085 48.1881 25.0915C46.792 29.8226 39.673 29.9352 33.0792 25.0915Z" fill="#8E431E" stroke="#231F20" stroke-width="0.54" stroke-linejoin="round"/>
<path d="M24.4535 33.9623C29.651 40.5379 29.4713 47.7612 24.4535 49.3523C19.8365 47.9443 19.7121 40.6928 24.4535 33.9623Z" fill="#8E431E" stroke="#231F20" stroke-width="0.54" stroke-linejoin="round"/>
<path d="M24.2737 33.906C21.9602 33.9013 19.741 32.9709 18.0947 31.3151C16.591 29.6417 15.7106 27.4844 15.6065 25.2183C-8.81932 25.4436 4.72755 44.0017 0.912308 49.2819L0.663488 49.5494L0.774074 49.465L0.677311 49.5635L0.815544 49.4368C6.56605 45.1563 24.7023 59.0256 24.2737 33.906Z" fill="#DFB430"/>
<path d="M24.2737 33.906C21.9602 33.9013 19.741 32.9709 18.0947 31.3151C16.591 29.6417 15.7106 27.4844 15.6065 25.2183C-8.81932 25.4436 4.72755 44.0017 0.912308 49.2819L0.663488 49.5494L0.774074 49.465L0.677311 49.5635L0.815544 49.4368C6.56605 45.1563 24.7023 59.0256 24.2737 33.906Z" stroke="#231F20" stroke-width="0.54" stroke-linejoin="round"/>
<path d="M18.2744 18.7553C19.9259 17.2265 22.0453 16.3262 24.2738 16.2067C24.0388 -8.65953 5.83345 5.15348 0.649697 1.28133C0.569216 1.18523 0.481394 1.09578 0.387053 1.0138C0.419005 1.04785 0.446849 1.08567 0.469993 1.12644L0.37323 1.04196L0.49764 1.16869C4.64464 7.02619 -8.90222 25.5139 15.7033 25.1056C15.7071 22.7516 16.6151 20.4925 18.233 18.8116L18.2744 18.7553Z" fill="#DFB430"/>
<path d="M18.2744 18.7553C19.9259 17.2265 22.0453 16.3262 24.2738 16.2067C24.0388 -8.65953 5.83345 5.15348 0.649697 1.28133C0.569216 1.18523 0.481394 1.09578 0.387053 1.0138C0.419005 1.04785 0.446849 1.08567 0.469993 1.12644L0.37323 1.04196L0.49764 1.16869C4.64464 7.02619 -8.90222 25.5139 15.7033 25.1056C15.7071 22.7516 16.6151 20.4925 18.233 18.8116L18.2744 18.7553Z" stroke="#231F20" stroke-width="0.54" stroke-linejoin="round"/>
<path d="M48.0361 0.901148L48.2849 0.633618L48.1743 0.718101C48.2099 0.688888 48.2424 0.655842 48.2711 0.619537L48.1466 0.746262C42.3961 4.97042 24.2461 -8.81442 24.647 16.3053C26.9589 16.3046 29.1783 17.2301 30.826 18.882V18.882C32.3297 20.5554 33.2101 22.7128 33.3142 24.9789C57.8092 24.7254 44.2346 6.18135 48.0361 0.901148Z" fill="#DFB430"/>
<path d="M48.0361 0.901148L48.2849 0.633618L48.1743 0.718101C48.2099 0.688888 48.2424 0.655842 48.2711 0.619537L48.1466 0.746262C42.3961 4.97042 24.2461 -8.81442 24.647 16.3053C26.9589 16.3046 29.1783 17.2301 30.826 18.882V18.882C32.3297 20.5554 33.2101 22.7128 33.3142 24.9789C57.8092 24.7254 44.2346 6.18135 48.0361 0.901148Z" stroke="#231F20" stroke-width="0.54" stroke-linejoin="round"/>
<path d="M48.2296 49.4509C44.0826 43.5511 57.9059 25.2042 33.2036 25.4154C33.1831 27.7715 32.249 30.0238 30.6049 31.6812V31.6812C28.9486 33.1924 26.8273 34.0687 24.6055 34.1594C24.6055 59.0256 42.9214 45.4238 48.1052 49.3241L48.354 49.5917L48.2711 49.479L48.3817 49.5635L48.2296 49.4509Z" fill="#DFB430"/>
<path d="M48.2296 49.4509C44.0826 43.5511 57.9059 25.2042 33.2036 25.4154C33.1831 27.7715 32.249 30.0238 30.6049 31.6812V31.6812C28.9486 33.1924 26.8273 34.0687 24.6055 34.1594C24.6055 59.0256 42.9214 45.4238 48.1052 49.3241L48.354 49.5917L48.2711 49.479L48.3817 49.5635L48.2296 49.4509Z" stroke="#231F20" stroke-width="0.54" stroke-linejoin="round"/>
<path d="M18.3851 18.9806L9.69019 10.1098" stroke="#231F20" stroke-width="0.54" stroke-linecap="round" stroke-linejoin="round"/>
<path d="M16.4636 21.8108L6.6767 19.3185" stroke="#231F20" stroke-width="0.54" stroke-linecap="round" stroke-linejoin="round"/>
<path d="M21.3432 16.8403L18.8827 6.88538" stroke="#231F20" stroke-width="0.54" stroke-linecap="round" stroke-linejoin="round"/>
<path d="M30.3837 18.9524L39.0371 10.0253" stroke="#231F20" stroke-width="0.54" stroke-linecap="round" stroke-linejoin="round"/>
<path d="M27.5776 16.9952L29.9828 7.02618" stroke="#231F20" stroke-width="0.54" stroke-linecap="round" stroke-linejoin="round"/>
<path d="M32.4987 21.9516L42.2579 19.3748" stroke="#231F20" stroke-width="0.54" stroke-linecap="round" stroke-linejoin="round"/>
<path d="M30.4805 31.1602L39.2998 39.9324" stroke="#231F20" stroke-width="0.54" stroke-linecap="round" stroke-linejoin="round"/>
<path d="M32.3743 28.3019L42.1888 30.6815" stroke="#231F20" stroke-width="0.54" stroke-linecap="round" stroke-linejoin="round"/>
<path d="M27.5499 33.3286L30.1349 43.2695" stroke="#231F20" stroke-width="0.54" stroke-linecap="round" stroke-linejoin="round"/>
<path d="M18.4956 31.3433L9.93896 40.3689" stroke="#231F20" stroke-width="0.54" stroke-linecap="round" stroke-linejoin="round"/>
<path d="M21.3156 33.2582L19.0347 43.2554" stroke="#231F20" stroke-width="0.54" stroke-linecap="round" stroke-linejoin="round"/>
<path d="M16.3392 28.3723L6.60754 31.0476" stroke="#231F20" stroke-width="0.54" stroke-linecap="round" stroke-linejoin="round"/>
<path d="M18.3989 25.0211C18.3907 23.7841 18.743 22.5724 19.4112 21.5393C20.0793 20.5063 21.0334 19.6985 22.1525 19.218C23.2716 18.7375 24.5055 18.606 25.6981 18.8402C26.8906 19.0744 27.9881 19.6636 28.8517 20.5334C29.7153 21.4032 30.3061 22.5144 30.5494 23.7264C30.7927 24.9384 30.6776 26.1967 30.2185 27.342C29.7595 28.4873 28.9772 29.4681 27.9706 30.1603C26.9641 30.8526 25.7786 31.225 24.5641 31.2306C23.7587 31.2362 22.9602 31.0799 22.2143 30.7707C21.4683 30.4615 20.7896 30.0054 20.2169 29.4286C19.6442 28.8518 19.1889 28.1656 18.8769 27.4093C18.5649 26.653 18.4025 25.8415 18.3989 25.0211V25.0211Z" fill="#8D5525" stroke="#231F20" stroke-width="0.28" stroke-linejoin="round"/>
<path d="M18.4403 25.1478C18.4349 23.9142 18.7887 22.7065 19.457 21.6777C20.1253 20.6488 21.0782 19.8449 22.195 19.3677C23.3119 18.8904 24.5426 18.7613 25.7316 18.9965C26.9205 19.2317 28.0143 19.8208 28.8745 20.6892C29.7348 21.5576 30.3229 22.6663 30.5646 23.8752C30.8062 25.0841 30.6905 26.3388 30.2321 27.4807C29.7737 28.6226 28.9931 29.6004 27.9891 30.2904C26.9852 30.9805 25.8028 31.3518 24.5917 31.3573C23.7875 31.3611 22.9905 31.2034 22.2461 30.8933C21.5018 30.5833 20.8247 30.1269 20.2534 29.5503C19.6822 28.9737 19.2281 28.2881 18.917 27.5328C18.6059 26.7774 18.4439 25.967 18.4403 25.1478V25.1478Z" fill="#8D5525"/>
<path d="M31.061 18.347H17.998V31.6531H31.061V18.347Z" fill="#8D5525"/>
<path d="M31.061 18.347H17.998V31.6531H31.061V18.347Z" stroke="#231F20" stroke-width="0.28"/>
<path d="M30.2454 31.6531V18.347" stroke="#231F20" stroke-width="0.28"/>
<path d="M29.4299 31.6531V18.347" stroke="#231F20" stroke-width="0.28"/>
<path d="M28.6143 31.6531V18.347" stroke="#231F20" stroke-width="0.28"/>
<path d="M27.7988 31.6531V18.347" stroke="#231F20" stroke-width="0.28"/>
<path d="M26.9832 31.6531V18.347" stroke="#231F20" stroke-width="0.28"/>
<path d="M26.1538 31.6531L26.1676 18.347" stroke="#231F20" stroke-width="0.28"/>
<path d="M25.3382 31.6531V18.347" stroke="#231F20" stroke-width="0.28"/>
<path d="M24.5226 31.6531V18.347" stroke="#231F20" stroke-width="0.28"/>
<path d="M23.707 31.6531V18.347" stroke="#231F20" stroke-width="0.28"/>
<path d="M22.8914 31.6531V18.347" stroke="#231F20" stroke-width="0.28"/>
<path d="M22.0759 31.6531V18.347" stroke="#231F20" stroke-width="0.28"/>
<path d="M21.2603 31.6531V18.347" stroke="#231F20" stroke-width="0.28"/>
<path d="M20.4448 31.6531V18.347" stroke="#231F20" stroke-width="0.28"/>
<path d="M19.6292 31.6531V18.347" stroke="#231F20" stroke-width="0.28"/>
<path d="M18.8136 31.6531V18.347" stroke="#231F20" stroke-width="0.28"/>
<path d="M17.998 19.1777H31.061" stroke="#231F20" stroke-width="0.28"/>
<path d="M17.998 20.0085H31.061" stroke="#231F20" stroke-width="0.28"/>
<path d="M17.998 20.8392H31.061" stroke="#231F20" stroke-width="0.28"/>
<path d="M17.998 21.67H31.061" stroke="#231F20" stroke-width="0.28"/>
<path d="M17.998 22.5007H31.061" stroke="#231F20" stroke-width="0.28"/>
<path d="M17.998 23.3315H31.061" stroke="#231F20" stroke-width="0.28"/>
<path d="M17.998 24.1622H31.061" stroke="#231F20" stroke-width="0.28"/>
<path d="M17.998 24.993H31.061" stroke="#231F20" stroke-width="0.28"/>
<path d="M17.998 25.8237H31.061" stroke="#231F20" stroke-width="0.28"/>
<path d="M17.998 26.6545H31.061" stroke="#231F20" stroke-width="0.28"/>
<path d="M17.998 27.4852H31.061" stroke="#231F20" stroke-width="0.28"/>
<path d="M17.998 28.316H31.061" stroke="#231F20" stroke-width="0.28"/>
<path d="M17.998 29.1467H31.061" stroke="#231F20" stroke-width="0.28"/>
<path d="M17.998 29.9775H31.061" stroke="#231F20" stroke-width="0.28"/>
<path d="M17.998 30.8223H31.061" stroke="#231F20" stroke-width="0.28"/>
<path d="M31.061 18.347H17.998V31.6531H31.061V18.347Z" stroke="#231F20" stroke-width="0.28"/>
<path d="M30.2454 31.6531V18.347" stroke="#231F20" stroke-width="0.28"/>
<path d="M29.4299 31.6531V18.347" stroke="#231F20" stroke-width="0.28"/>
<path d="M28.6143 31.6531V18.347" stroke="#231F20" stroke-width="0.28"/>
<path d="M27.7988 31.6531V18.347" stroke="#231F20" stroke-width="0.28"/>
<path d="M26.9832 31.6531V18.347" stroke="#231F20" stroke-width="0.28"/>
<path d="M26.1538 31.6531L26.1676 18.347" stroke="#231F20" stroke-width="0.28"/>
<path d="M25.3382 31.6531V18.347" stroke="#231F20" stroke-width="0.28"/>
<path d="M24.5226 31.6531V18.347" stroke="#231F20" stroke-width="0.28"/>
<path d="M23.707 31.6531V18.347" stroke="#231F20" stroke-width="0.28"/>
<path d="M22.8914 31.6531V18.347" stroke="#231F20" stroke-width="0.28"/>
<path d="M22.0759 31.6531V18.347" stroke="#231F20" stroke-width="0.28"/>
<path d="M21.2603 31.6531V18.347" stroke="#231F20" stroke-width="0.28"/>
<path d="M20.4448 31.6531V18.347" stroke="#231F20" stroke-width="0.28"/>
<path d="M19.6292 31.6531V18.347" stroke="#231F20" stroke-width="0.28"/>
<path d="M18.8136 31.6531V18.347" stroke="#231F20" stroke-width="0.28"/>
<path d="M17.998 19.1777H31.061" stroke="#231F20" stroke-width="0.28"/>
<path d="M17.998 20.0085H31.061" stroke="#231F20" stroke-width="0.28"/>
<path d="M17.998 20.8392H31.061" stroke="#231F20" stroke-width="0.28"/>
<path d="M17.998 21.67H31.061" stroke="#231F20" stroke-width="0.28"/>
<path d="M17.998 22.5007H31.061" stroke="#231F20" stroke-width="0.28"/>
<path d="M17.998 23.3315H31.061" stroke="#231F20" stroke-width="0.28"/>
<path d="M17.998 24.1622H31.061" stroke="#231F20" stroke-width="0.28"/>
<path d="M17.998 24.993H31.061" stroke="#231F20" stroke-width="0.28"/>
<path d="M17.998 25.8237H31.061" stroke="#231F20" stroke-width="0.28"/>
<path d="M17.998 26.6545H31.061" stroke="#231F20" stroke-width="0.28"/>
<path d="M17.998 27.4852H31.061" stroke="#231F20" stroke-width="0.28"/>
<path d="M17.998 28.316H31.061" stroke="#231F20" stroke-width="0.28"/>
<path d="M17.998 29.1467H31.061" stroke="#231F20" stroke-width="0.28"/>
<path d="M17.998 29.9775H31.061" stroke="#231F20" stroke-width="0.28"/>
<path d="M17.998 30.8223H31.061" stroke="#231F20" stroke-width="0.28"/>
<path d="M65.5641 34.5818L66.5317 33.1737H67.3197V39.1157H66.6008C66.3252 37.6238 65.6398 36.242 64.6241 35.1309C63.8171 34.3223 62.7288 33.8718 61.5968 33.8778C60.7376 33.8407 59.8985 34.1492 59.2607 34.7367C58.9673 35.0063 58.734 35.3368 58.5766 35.706C58.4193 36.0752 58.3414 36.4745 58.3483 36.8769C58.3279 37.3704 58.4479 37.8594 58.6939 38.285C58.9478 38.6976 59.3059 39.0332 59.7307 39.2565C60.5591 39.6183 61.4268 39.8783 62.3156 40.031C63.6158 40.2645 64.88 40.6716 66.0756 41.2419C66.7515 41.5633 67.326 42.0704 67.7344 42.7063C68.0949 43.3638 68.2762 44.1076 68.2596 44.8606C68.2884 45.5348 68.1804 46.2078 67.9426 46.8376C67.7048 47.4675 67.3422 48.0407 66.8773 48.5215C66.3736 48.9986 65.7818 49.3687 65.1363 49.6105C64.4907 49.8522 63.8045 49.9607 63.1174 49.9296C61.5297 49.954 59.9908 49.3712 58.8045 48.2962L57.588 49.8169H56.8001V43.537H57.588C57.8002 45.1028 58.5146 46.5533 59.6201 47.6626C60.0879 48.1406 60.6437 48.5197 61.2558 48.7782C61.8678 49.0368 62.5239 49.1697 63.1865 49.1692C64.1472 49.2132 65.0861 48.8691 65.7991 48.2118C66.1232 47.9166 66.3811 47.5538 66.5552 47.148C66.7293 46.7423 66.8156 46.3031 66.8082 45.8603C66.8261 45.3634 66.696 44.8725 66.435 44.4523C66.123 44.0213 65.7094 43.6774 65.2323 43.4525C64.1806 43.0292 63.0933 42.7041 61.9839 42.481C60.6987 42.2704 59.4703 41.791 58.376 41.0729C57.9178 40.6892 57.5541 40.2015 57.3141 39.6489C57.0741 39.0963 56.9643 38.4942 56.9936 37.8907C56.9664 37.241 57.0717 36.5926 57.3029 35.9865C57.5341 35.3804 57.8862 34.8297 58.337 34.3692C58.7878 33.9087 59.3274 33.5485 59.9218 33.3112C60.5162 33.0739 61.1524 32.9648 61.7903 32.9907C62.4475 32.9908 63.099 33.115 63.7118 33.3568C64.3897 33.6614 65.0151 34.075 65.5641 34.5818V34.5818Z" fill="#8E431E"/>
<path d="M72.5034 33.3568H80.7974C82.131 33.2701 83.4522 33.6638 84.5297 34.4692C85.2065 35.0478 85.659 35.8531 85.8059 36.7407C85.9528 37.6283 85.7846 38.5401 85.3314 39.3129C84.958 39.8954 84.431 40.359 83.8108 40.6505C82.821 41.0683 81.77 41.3157 80.7006 41.3827C81.4493 41.5487 82.1677 41.8338 82.8294 42.2275C83.2177 42.5036 83.5354 42.8706 83.7555 43.2977C84.1264 44.1501 84.4 45.043 84.5711 45.9589C84.6936 46.6546 84.9271 47.3253 85.2623 47.9442C85.3257 48.0557 85.4136 48.1505 85.5192 48.2214C85.6247 48.2923 85.745 48.3372 85.8705 48.3526C86.0917 48.3526 86.299 48.1836 86.4926 47.8457C86.7369 47.2877 86.8595 46.6824 86.852 46.0715H87.5846C87.4464 48.5779 86.5479 49.831 84.8199 49.831C84.3288 49.8437 83.8459 49.701 83.4376 49.4227C83.032 49.1198 82.728 48.697 82.5667 48.2118C82.313 47.1773 82.151 46.1217 82.0829 45.0577C82.0405 44.3487 81.862 43.6551 81.5576 43.016C81.302 42.5774 80.921 42.2286 80.4656 42.0163C79.9084 41.7499 79.2977 41.6197 78.6824 41.6362H77.4106V48.0428C77.399 48.1488 77.4117 48.2561 77.4477 48.3563C77.4837 48.4564 77.542 48.5467 77.618 48.6201C77.8546 48.7796 78.1368 48.854 78.4197 48.8313H79.968V49.6621H72.5034V48.8313H74.0654C74.3355 48.8558 74.6052 48.7809 74.8257 48.6201C74.9084 48.5502 74.9739 48.4616 75.0171 48.3614C75.0603 48.2612 75.0799 48.1521 75.0745 48.0428V35.0183C75.0833 34.9003 75.0654 34.7819 75.0223 34.6721C74.9792 34.5622 74.9119 34.4639 74.8257 34.3847C74.6042 34.2262 74.3352 34.1514 74.0654 34.1735H72.5034V33.3568ZM77.4106 40.8336H79.3044C80.3489 40.8954 81.3879 40.6406 82.2903 40.1014C82.6732 39.7969 82.9733 39.3977 83.162 38.9418C83.3507 38.4858 83.4218 37.9883 83.3685 37.4965C83.3963 36.7991 83.2488 36.106 82.94 35.483C82.7189 35.0205 82.3408 34.6553 81.8756 34.4551C81.0302 34.2173 80.1523 34.1222 79.2768 34.1735C78.7448 34.1306 78.2098 34.1928 77.7009 34.3565C77.599 34.4211 77.5166 34.5132 77.4629 34.6225C77.4093 34.7319 77.3864 34.8543 77.3968 34.9761L77.4106 40.8336Z" fill="#8E431E"/>
<path d="M91.4275 33.3568H98.8092V34.1735H97.5513C96.9845 34.1735 96.6251 34.2439 96.4869 34.3988C96.3012 34.6586 96.2219 34.9817 96.2657 35.2999V47.6486C96.2657 48.1414 96.2657 48.4512 96.4592 48.5779C96.7321 48.7755 97.0661 48.8656 97.3992 48.8313H98.7815V49.6621H91.4275V48.8313H92.8099C93.1441 48.8773 93.4834 48.7972 93.7637 48.606C93.948 48.3243 94.0265 47.9844 93.9848 47.6486V35.2999C94.0254 34.9947 93.9567 34.6848 93.7913 34.4269C93.4538 34.2239 93.0618 34.1352 92.6716 34.1735H91.4137L91.4275 33.3568Z" fill="#8E431E"/>
<path d="M111.817 33.3568H119.24V34.1735H117.498C117.385 34.1665 117.272 34.1828 117.165 34.2215C117.058 34.2602 116.96 34.3205 116.876 34.3988C116.734 34.6089 116.665 34.8621 116.683 35.1169V47.9865C116.67 48.1069 116.685 48.2288 116.729 48.3417C116.772 48.4545 116.842 48.5549 116.932 48.6342C117.245 48.8037 117.602 48.8725 117.955 48.8313H120.208C120.752 48.8484 121.294 48.7495 121.798 48.5409C122.303 48.3324 122.759 48.0189 123.138 47.6204C124.068 46.3981 124.643 44.9346 124.797 43.3962H125.557L125.184 49.6762H111.817V48.8454H113.116C113.449 48.8797 113.783 48.7896 114.056 48.592C114.158 48.4817 114.236 48.3505 114.283 48.2072C114.331 48.0639 114.348 47.9118 114.333 47.7612V35.0887C114.341 34.9754 114.326 34.8616 114.288 34.7547C114.249 34.6479 114.189 34.5506 114.112 34.4692C113.919 34.3165 113.678 34.2414 113.434 34.258H111.817V33.3568Z" fill="#8E431E"/>
<path d="M136.312 33.0048H137.044L142.781 47.8738C142.887 48.1548 143.078 48.3938 143.327 48.556C143.576 48.7182 143.869 48.7949 144.163 48.775H144.661V49.6058H138.275V48.775H138.772C139.244 48.8064 139.716 48.7294 140.155 48.5497C140.243 48.5105 140.318 48.4453 140.37 48.3625C140.421 48.2798 140.448 48.1831 140.445 48.0851C140.444 47.9493 140.416 47.8151 140.362 47.6908L138.98 44.227H132.773L132.027 46.2123C131.861 46.6102 131.762 47.034 131.736 47.4655C131.742 47.6494 131.789 47.8294 131.876 47.9908C131.962 48.1523 132.085 48.2907 132.234 48.3948C132.645 48.6649 133.128 48.7978 133.616 48.775H134.155V49.6058H128.35V48.775C128.903 48.8469 129.465 48.7227 129.939 48.423C130.407 47.9981 130.756 47.4537 130.948 46.846L136.312 33.0048ZM135.994 36.1448L133.119 43.4244H138.772L135.994 36.1448Z" fill="#8E431E"/>
<path d="M148.145 33.3568H151.974L161.65 46.1701V36.891C161.708 36.1456 161.486 35.4056 161.028 34.8212C160.802 34.5986 160.532 34.4262 160.237 34.3147C159.942 34.2033 159.628 34.1552 159.314 34.1735V33.3568H164.926V34.1735C164.483 34.1435 164.04 34.2309 163.641 34.4269C163.315 34.6397 163.056 34.9425 162.894 35.2999C162.686 35.7387 162.582 36.2209 162.59 36.708V49.6621H161.567L151.573 36.3137V46.1701C151.544 46.5319 151.588 46.8958 151.702 47.2397C151.816 47.5835 151.998 47.9 152.236 48.1695C152.808 48.6533 153.54 48.8952 154.282 48.8454V49.6762H148.172V48.8454C148.511 48.8487 148.847 48.7832 149.16 48.6526C149.473 48.5221 149.758 48.3291 149.997 48.0851C150.439 47.606 150.678 46.9683 150.66 46.3109V35.2014L150.481 34.9902C150.263 34.7096 150.001 34.467 149.707 34.272C149.453 34.1625 149.18 34.1097 148.905 34.1172H148.172L148.145 33.3568Z" fill="#8E431E"/>
<path d="M168.866 33.3568H176.192V34.1735H174.63C174.348 34.1601 174.072 34.2556 173.856 34.441C173.768 34.5284 173.699 34.6338 173.654 34.7503C173.608 34.8668 173.588 34.9917 173.593 35.1169V42.6922L179.62 36.1307C179.919 35.8479 180.102 35.4606 180.132 35.0465C180.134 34.9212 180.102 34.7978 180.042 34.6889C179.981 34.58 179.893 34.4895 179.786 34.4269C179.426 34.2308 179.019 34.1429 178.611 34.1735H178.169V33.3568H184.735V34.1735H184.224C183.718 34.1984 183.223 34.3328 182.772 34.5677C182.227 34.8479 181.736 35.2245 181.321 35.6801L177.616 39.6227L182.924 47.5922C183.149 47.9812 183.461 48.3096 183.836 48.5497C184.183 48.7433 184.574 48.8405 184.97 48.8313H185.551V49.6621H178.321V48.8313H179.137C179.543 48.8574 179.951 48.8048 180.339 48.6764C180.533 48.5826 180.629 48.4558 180.629 48.2963C180.627 48.1465 180.584 48.0004 180.505 47.8738L176.082 41.256L173.58 44.0017V48.0147C173.57 48.1163 173.584 48.2187 173.62 48.314C173.656 48.4093 173.713 48.4948 173.787 48.5638C174.028 48.7416 174.319 48.8354 174.616 48.8313H176.178V49.6621H168.852V48.8313H170.234C170.519 48.8557 170.804 48.7759 171.036 48.606C171.119 48.5327 171.186 48.4418 171.231 48.3397C171.276 48.2376 171.3 48.1267 171.299 48.0147V34.9902C171.303 34.8747 171.278 34.7601 171.228 34.6567C171.177 34.5534 171.102 34.4647 171.008 34.3988C170.707 34.2209 170.36 34.1422 170.013 34.1735H168.824L168.866 33.3568Z" fill="#8E431E"/>
<path d="M195.628 33.0048H196.291L202.083 47.8738C202.189 48.1548 202.38 48.3938 202.629 48.556C202.878 48.7182 203.171 48.7949 203.466 48.775H203.963V49.6058H197.674V48.775H198.185C198.657 48.8064 199.129 48.7294 199.567 48.5497C199.653 48.5084 199.725 48.4423 199.774 48.3597C199.823 48.2771 199.848 48.1816 199.844 48.0851C199.841 47.9508 199.818 47.8178 199.775 47.6908L198.392 44.227H192.144L191.398 46.2123C191.232 46.6102 191.134 47.034 191.108 47.4655C191.113 47.6477 191.16 47.8262 191.244 47.9872C191.328 48.1483 191.447 48.2877 191.591 48.3948C192.003 48.6632 192.486 48.796 192.974 48.775H193.527V49.6058H187.721V48.775C188.244 48.8018 188.762 48.6588 189.2 48.3667C189.659 47.9366 190.002 47.3936 190.195 46.7896L195.628 33.0048ZM195.31 36.1448L192.435 43.4244H198.088L195.31 36.1448Z" fill="#8E431E"/>
<path d="M56.5789 0.577301H65.6608L70.7754 16.1363L75.8763 0.647704H85.1932V2.05576H83.175C82.8072 2.01686 82.4382 2.11709 82.1382 2.33737C82.0281 2.47104 81.9456 2.62601 81.8957 2.79296C81.8458 2.95992 81.8296 3.13542 81.8479 3.30893V20.811C81.8285 20.9782 81.8471 21.1477 81.9022 21.3064C81.9574 21.4651 82.0476 21.6087 82.1659 21.7263C82.5217 21.9902 82.9568 22.1197 83.3962 22.0924H85.1932V23.5004H73.706V22.0924H75.8763C76.0431 22.1046 76.2106 22.0808 76.3678 22.0226C76.525 21.9644 76.6684 21.873 76.7886 21.7544C77.0076 21.4928 77.1169 21.154 77.0927 20.811V2.01352L69.9322 23.5427H68.5499L61.4447 1.83047V18.6145C61.427 19.0526 61.4976 19.4898 61.6521 19.899C61.8066 20.3083 62.0418 20.681 62.3432 20.9941C63.0574 21.6575 63.9766 22.0459 64.942 22.0924V23.5004H56.648V22.0924C57.582 22.0625 58.4666 21.6576 59.1086 20.9659C59.7035 20.2639 60.0148 19.3581 59.9794 18.4314V3.59054C60.0372 3.1422 59.9233 2.68842 59.6615 2.32329C59.2994 2.07701 58.8642 1.96743 58.4312 2.01352H56.5789V0.577301Z" fill="#8E431E"/>
<path d="M98.9336 0L107.393 20.6139C107.542 21.0715 107.816 21.4768 108.181 21.7826C108.517 22.0055 108.914 22.114 109.315 22.0924H110.13V23.5004H99.528V22.0924H100.523C101.07 22.134 101.618 22.0473 102.127 21.8389C102.258 21.7756 102.369 21.676 102.447 21.5515C102.525 21.427 102.568 21.2827 102.569 21.1349C102.561 20.8625 102.5 20.5944 102.389 20.3464L100.648 16.1222H92.2154L91.4137 18.0513C91.1361 18.615 90.9627 19.2259 90.9022 19.8536C90.894 20.1667 90.9556 20.4777 91.0826 20.7631C91.2095 21.0485 91.3983 21.3008 91.6349 21.501C92.2088 21.945 92.9199 22.1648 93.6392 22.1205H94.3581V23.5286H85.7876V22.1205H86.2852C86.8143 22.127 87.3285 21.9424 87.7367 21.5996C88.3427 21.0845 88.8171 20.4274 89.119 19.6846L97.2195 0H98.9336ZM96.4869 5.81526L92.8651 14.5734H100.053L96.4869 5.81526Z" fill="#8E431E"/>
<path d="M111.098 0.577308H123.235C125.257 0.531765 127.256 1.01665 129.041 1.98536C130.699 2.93441 132.056 4.34625 132.953 6.05464C133.907 7.88668 134.383 9.93754 134.335 12.0107C134.387 14.079 133.941 16.1287 133.036 17.9809C132.16 19.6835 130.815 21.0882 129.165 22.022C127.485 23.0135 125.577 23.5334 123.636 23.5286H111.057V22.1205H112.923C113.112 22.133 113.302 22.1056 113.48 22.0402C113.658 21.9748 113.822 21.8728 113.96 21.7404C114.21 21.4498 114.339 21.0707 114.319 20.6843V3.35117C114.335 3.16452 114.31 2.97655 114.245 2.8011C114.181 2.62565 114.078 2.46719 113.946 2.33738C113.585 2.08725 113.15 1.97275 112.715 2.01352H111.057L111.098 0.577308ZM122.157 22.0924C123.469 22.1208 124.759 21.7481 125.861 21.0223C126.929 20.3267 127.748 19.2998 128.198 18.0935C128.767 16.2316 129.01 14.2823 128.916 12.3346C129.007 10.2067 128.722 8.07949 128.073 6.05464C127.662 4.79425 126.862 3.70286 125.792 2.94284C124.483 2.24238 123.011 1.92096 121.535 2.01352C120.883 1.95346 120.226 2.04493 119.613 2.28105C119.472 2.39556 119.363 2.54509 119.295 2.71524C119.227 2.88539 119.203 3.07045 119.226 3.25261V20.6421C119.19 21.0383 119.298 21.4343 119.53 21.7544C119.806 21.9959 120.163 22.1173 120.526 22.0924H122.157Z" fill="#8E431E"/>
<path d="M135.704 0.577301H155.333L155.775 8.60321H154.393C154.219 7.18204 153.823 5.79854 153.218 4.50577C152.787 3.71381 152.139 3.06766 151.352 2.64714C150.414 2.18561 149.379 1.96791 148.338 2.01352H145.269C144.9 1.9773 144.53 2.08273 144.233 2.30921C144.12 2.40747 144.031 2.53119 143.974 2.67052C143.916 2.80985 143.891 2.96095 143.901 3.1118V11.0673H144.965C145.472 11.0929 145.979 11.0124 146.455 10.8308C146.93 10.6492 147.364 10.3703 147.73 10.0113C148.494 9.05222 148.91 7.85324 148.905 6.61785H150.287V17.305H148.905C148.999 15.9777 148.648 14.6571 147.91 13.5596C147.505 13.1722 147.026 12.8756 146.502 12.6888C145.978 12.5021 145.422 12.4293 144.868 12.4754H143.998V20.9237C143.983 21.073 144.006 21.2236 144.064 21.3615C144.122 21.4994 144.213 21.6201 144.329 21.7122C144.747 21.9617 145.228 22.0793 145.712 22.0501H148.476C149.318 22.0826 150.158 21.938 150.943 21.6255C151.728 21.313 152.441 20.8393 153.038 20.2337C154.349 18.7079 155.122 16.7804 155.236 14.7564H156.618L156.204 23.5427H135.704V22.1346H137.722C137.911 22.1528 138.102 22.1309 138.283 22.0703C138.464 22.0097 138.631 21.9118 138.772 21.7826C138.892 21.6558 138.986 21.5057 139.048 21.3412C139.11 21.1767 139.138 21.0011 139.132 20.8251V3.1118C139.143 2.95398 139.116 2.79581 139.053 2.65103C138.991 2.50625 138.894 2.37924 138.772 2.28105C138.378 2.06935 137.932 1.97655 137.487 2.01352H135.704V0.577301Z" fill="#8E431E"/>
<path d="M167.096 0.577301H178.653V1.98536H176.565C176.216 1.95776 175.868 2.05757 175.584 2.26697C175.479 2.37042 175.398 2.49574 175.345 2.63429C175.293 2.77285 175.271 2.92134 175.28 3.06956V20.8674C175.264 21.0301 175.284 21.1944 175.339 21.348C175.394 21.5016 175.483 21.6406 175.598 21.7544C175.945 22.0012 176.364 22.1203 176.787 22.0924H178.653V23.5004H167.096V22.0924H168.866C169.316 22.1368 169.768 22.0278 170.151 21.7826C170.28 21.6705 170.38 21.5293 170.445 21.3703C170.51 21.2113 170.537 21.039 170.525 20.8674V3.29485C170.54 3.11704 170.517 2.93795 170.457 2.77013C170.398 2.60231 170.303 2.44981 170.179 2.32329C169.872 2.0946 169.494 1.9848 169.115 2.01352H167.096V0.577301Z" fill="#8E431E"/>
<path d="M180.961 0.577301H187.997L200.203 16.3193V5.63222C200.227 5.17123 200.161 4.71004 200.009 4.27511C199.857 3.84017 199.623 3.44005 199.319 3.09772C198.646 2.4258 197.745 2.04274 196.803 2.0276V0.619543H205.097V2.0276C204.172 2.05372 203.289 2.43026 202.622 3.08364C202.056 3.8036 201.771 4.7111 201.821 5.63222V23.5427H200.024L186.117 5.42101V17.9668C186.021 19.1024 186.369 20.231 187.085 21.1067C187.398 21.4297 187.774 21.6839 188.187 21.8534C188.601 22.0229 189.044 22.1042 189.49 22.0924H189.877V23.5004H180.768V22.0924H181.404C181.835 22.0985 182.263 22.004 182.653 21.8161C183.044 21.6282 183.387 21.3518 183.657 21.0082C184.294 20.2177 184.62 19.2137 184.569 18.1921V3.39341C184.281 2.95816 183.891 2.602 183.436 2.35642C182.98 2.11083 182.472 1.98339 181.957 1.98536H180.961V0.577301Z" fill="#8E431E"/>
</g>
<defs>
<clipPath id="clip0">
<rect width="205" height="50" fill="white"/>
</clipPath>
</defs>
</svg>
