<svg width="205" height="50" fill="none" xmlns="http://www.w3.org/2000/svg"><g clip-path="url(#clip0)"><path d="M15.841 25.162a8.849 8.849 0 011.395-4.872 8.61 8.61 0 013.82-3.26 8.426 8.426 0 014.953-.544 8.52 8.52 0 014.413 2.355 8.778 8.778 0 012.383 4.457 8.881 8.881 0 01-.454 5.054 8.701 8.701 0 01-3.137 3.942 8.461 8.461 0 01-4.76 1.5 8.504 8.504 0 01-6.05-2.512 8.824 8.824 0 01-2.563-6.12z" fill="#F3A12D" stroke="#231F20" stroke-width=".54"/><path d="M15.717 25.12c-6.483 5.266-13.574 5.026-15.095 0 1.41-4.788 8.53-4.872 15.095 0zm8.667-8.829c-5.17-6.604-4.962-13.827 0-15.39 4.645 1.422 4.77 8.674 0 15.39zm8.696 8.8c6.468-5.28 13.56-5.082 15.108 0-1.396 4.732-8.515 4.844-15.109 0zm-8.627 8.871c5.198 6.576 5.018 13.8 0 15.39-4.616-1.408-4.74-8.66 0-15.39z" fill="#8E431E" stroke="#231F20" stroke-width=".54" stroke-linejoin="round"/><path d="M24.274 33.906a8.738 8.738 0 01-6.18-2.59 9.795 9.795 0 01-2.488-6.098C-8.819 25.444 4.729 44.002.912 49.282l-.249.267.111-.084-.097.098.139-.126c5.75-4.28 23.886 9.589 23.458-15.531z" fill="#DFB430"/><path d="M24.274 33.906a8.738 8.738 0 01-6.18-2.59 9.795 9.795 0 01-2.488-6.098C-8.819 25.444 4.729 44.002.912 49.282l-.249.267.111-.084-.097.098.139-.126c5.75-4.28 23.886 9.589 23.458-15.531z" stroke="#231F20" stroke-width=".54" stroke-linejoin="round"/><path d="M18.274 18.755a9.586 9.586 0 016-2.548C24.039-8.66 5.834 5.153.65 1.28a2.372 2.372 0 00-.263-.267.59.59 0 01.083.112l-.097-.084.125.127c4.147 5.857-9.4 24.345 15.205 23.937a9.099 9.099 0 012.53-6.294l.041-.057z" fill="#DFB430"/><path d="M18.274 18.755a9.586 9.586 0 016-2.548C24.039-8.66 5.834 5.153.65 1.28a2.372 2.372 0 00-.263-.267.59.59 0 01.083.112l-.097-.084.125.127c4.147 5.857-9.4 24.345 15.205 23.937a9.099 9.099 0 012.53-6.294l.041-.057z" stroke="#231F20" stroke-width=".54" stroke-linejoin="round"/><path d="M48.036.901l.249-.267-.11.084A.645.645 0 0048.27.62l-.124.126c-5.75 4.224-23.9-9.56-23.5 15.56a8.72 8.72 0 016.179 2.576 9.796 9.796 0 012.488 6.097C57.81 24.725 44.234 6.18 48.036.9z" fill="#DFB430"/><path d="M48.036.901l.249-.267-.11.084A.645.645 0 0048.27.62l-.124.126c-5.75 4.224-23.9-9.56-23.5 15.56a8.72 8.72 0 016.179 2.576v0a9.796 9.796 0 012.488 6.097C57.81 24.725 44.234 6.18 48.036.9z" stroke="#231F20" stroke-width=".54" stroke-linejoin="round"/><path d="M48.23 49.45c-4.147-5.899 9.676-24.246-15.026-24.035a9.01 9.01 0 01-2.6 6.266 9.473 9.473 0 01-5.998 2.478c0 24.867 18.315 11.265 23.5 15.165l.248.268-.083-.113.11.084-.151-.112z" fill="#DFB430"/><path d="M48.23 49.45c-4.147-5.899 9.676-24.246-15.026-24.035a9.01 9.01 0 01-2.6 6.266v0a9.473 9.473 0 01-5.998 2.478c0 24.867 18.315 11.265 23.5 15.165l.248.268-.083-.113.11.084-.151-.112z" stroke="#231F20" stroke-width=".54" stroke-linejoin="round"/><path d="M18.385 18.98L9.69 10.11m6.774 11.7l-9.787-2.49m14.666-2.48l-2.46-9.955m11.501 12.067l8.653-8.927m-11.459 6.97l2.405-9.969m2.516 14.926l9.759-2.577M30.48 31.16l8.82 8.772m-6.926-11.63l9.815 2.38M27.55 33.329l2.585 9.94M18.496 31.343L9.939 40.37m11.377-7.112l-2.281 9.997M16.34 28.372l-9.732 2.676" stroke="#231F20" stroke-width=".54" stroke-linecap="round" stroke-linejoin="round"/><path d="M18.399 25.021a6.336 6.336 0 011.012-3.482 6.165 6.165 0 012.741-2.321 6.033 6.033 0 013.546-.378 6.102 6.102 0 013.154 1.693 6.287 6.287 0 011.697 3.193 6.36 6.36 0 01-.33 3.616 6.23 6.23 0 01-2.248 2.818 6.058 6.058 0 01-5.757.61 6.115 6.115 0 01-1.997-1.341 6.245 6.245 0 01-1.34-2.02 6.337 6.337 0 01-.478-2.388v0z" fill="#8D5525" stroke="#231F20" stroke-width=".28" stroke-linejoin="round"/><path d="M18.44 25.148a6.322 6.322 0 011.017-3.47 6.15 6.15 0 012.738-2.31 6.02 6.02 0 013.537-.371 6.088 6.088 0 013.143 1.692 6.273 6.273 0 011.69 3.186 6.346 6.346 0 01-.333 3.606 6.215 6.215 0 01-2.243 2.81 6.024 6.024 0 01-5.743.603 6.117 6.117 0 01-1.993-1.344 6.246 6.246 0 01-1.336-2.017 6.338 6.338 0 01-.477-2.385z" fill="#8D5525"/><path d="M31.061 18.347H17.998v13.306h13.063V18.347z" fill="#8D5525"/><path d="M31.061 18.347H17.998v13.306h13.063V18.347zm-.816 13.306V18.347m-.815 13.306V18.347m-.816 13.306V18.347m-.815 13.306V18.347m-.816 13.306V18.347m-.829 13.306l.014-13.306m-.83 13.306V18.347m-.815 13.306V18.347m-.816 13.306V18.347m-.816 13.306V18.347m-.815 13.306V18.347m-.816 13.306V18.347m-.815 13.306V18.347m-.815 13.306V18.347m-.816 13.306V18.347m-.816.831h13.063m-13.063.831h13.063m-13.063.831h13.063m-13.063.83h13.063m-13.063.83h13.063m-13.063.831h13.063m-13.063.831h13.063m-13.063.831h13.063m-13.063.831h13.063m-13.063.83h13.063m-13.063.831h13.063m-13.063.831h13.063m-13.063.831h13.063m-13.063.83h13.063m-13.063.845h13.063" stroke="#231F20" stroke-width=".28"/><path d="M31.061 18.347H17.998v13.306h13.063V18.347zm-.816 13.306V18.347m-.815 13.306V18.347m-.816 13.306V18.347m-.815 13.306V18.347m-.816 13.306V18.347m-.829 13.306l.014-13.306m-.83 13.306V18.347m-.815 13.306V18.347m-.816 13.306V18.347m-.816 13.306V18.347m-.815 13.306V18.347m-.816 13.306V18.347m-.815 13.306V18.347m-.815 13.306V18.347m-.816 13.306V18.347m-.816.831h13.063m-13.063.831h13.063m-13.063.831h13.063m-13.063.83h13.063m-13.063.83h13.063m-13.063.831h13.063m-13.063.831h13.063m-13.063.831h13.063m-13.063.831h13.063m-13.063.83h13.063m-13.063.831h13.063m-13.063.831h13.063m-13.063.831h13.063m-13.063.83h13.063m-13.063.845h13.063" stroke="#231F20" stroke-width=".28"/><path d="M65.564 34.582l.968-1.408h.788v5.942h-.72a8.08 8.08 0 00-1.976-3.985 4.245 4.245 0 00-3.027-1.253 3.24 3.24 0 00-2.336.859 2.85 2.85 0 00-.913 2.139c-.02.494.1.983.346 1.409a2.69 2.69 0 001.037.972c.828.361 1.696.621 2.585.774 1.3.233 2.564.64 3.76 1.21a4.03 4.03 0 011.658 1.465c.36.658.542 1.402.526 2.155a4.995 4.995 0 01-.317 1.977c-.238.63-.6 1.203-1.066 1.684a5.169 5.169 0 01-1.74 1.089 5.099 5.099 0 01-2.02.319 6.277 6.277 0 01-4.313-1.634l-1.216 1.52H56.8v-6.279h.788a7.216 7.216 0 002.032 4.126 5.024 5.024 0 001.636 1.115 4.95 4.95 0 001.93.391c.961.044 1.9-.3 2.613-.957.324-.295.582-.658.756-1.064.174-.406.26-.845.253-1.288a2.5 2.5 0 00-.373-1.408 3.138 3.138 0 00-1.203-1 18.432 18.432 0 00-3.248-.971 9.324 9.324 0 01-3.608-1.408 3.864 3.864 0 01-1.062-1.424 3.936 3.936 0 01-.32-1.758 4.783 4.783 0 01.309-1.904 4.712 4.712 0 011.034-1.618c.45-.46.99-.82 1.585-1.058a4.54 4.54 0 011.868-.32c.657 0 1.309.124 1.922.366a6.901 6.901 0 011.852 1.225zm6.939-1.225h8.294a5.622 5.622 0 013.733 1.112 3.804 3.804 0 011.276 2.272c.147.887-.021 1.8-.475 2.572a3.655 3.655 0 01-1.52 1.337 9.527 9.527 0 01-3.11.733 7.22 7.22 0 012.128.844c.389.277.706.644.927 1.07.37.853.644 1.746.815 2.662.123.696.356 1.366.691 1.985a.824.824 0 00.609.409c.22 0 .428-.17.622-.507a4.294 4.294 0 00.359-1.774h.733c-.139 2.506-1.037 3.759-2.765 3.759a2.346 2.346 0 01-1.382-.408 2.49 2.49 0 01-.871-1.211 18.096 18.096 0 01-.484-3.154 5.515 5.515 0 00-.525-2.042 2.477 2.477 0 00-1.092-1 3.891 3.891 0 00-1.784-.38h-1.271v6.407a.702.702 0 00.207.577c.237.16.519.234.802.211h1.548v.831h-7.465v-.83h1.562c.27.024.54-.051.76-.212a.703.703 0 00.25-.577V35.018a.788.788 0 00-.25-.633 1.145 1.145 0 00-.76-.212h-1.562v-.816zm4.908 7.477h1.893a5.218 5.218 0 002.986-.733c.383-.304.683-.703.872-1.16a2.95 2.95 0 00.206-1.445 4.163 4.163 0 00-.428-2.013 2.104 2.104 0 00-1.064-1.028 7.89 7.89 0 00-2.6-.282 4.075 4.075 0 00-1.575.183.658.658 0 00-.304.62l.014 5.858zm14.016-7.477h7.382v.816h-1.258c-.567 0-.926.07-1.064.226-.186.26-.265.583-.221.9v12.35c0 .492 0 .802.193.929.273.197.607.288.94.253h1.382v.831h-7.354v-.83h1.383a1.37 1.37 0 00.954-.226c.184-.282.263-.622.22-.957v-12.35a1.3 1.3 0 00-.193-.872 1.825 1.825 0 00-1.12-.254h-1.257l.013-.816zm20.39 0h7.423v.816h-1.742a.827.827 0 00-.622.226 1.14 1.14 0 00-.193.718v12.87a.755.755 0 00.249.647c.313.17.67.239 1.023.197h2.253a3.842 3.842 0 001.59-.29 3.907 3.907 0 001.34-.92 8.351 8.351 0 001.659-4.225h.76l-.373 6.28h-13.367v-.83h1.299c.333.034.667-.056.94-.254a1.07 1.07 0 00.277-.83V35.088a.824.824 0 00-.221-.62.984.984 0 00-.678-.211h-1.617v-.901zm24.495-.352h.732l5.737 14.869c.106.28.297.52.546.682.249.162.542.239.836.219h.498v.83h-6.386v-.83h.497c.472.031.944-.046 1.383-.225a.49.49 0 00.29-.465 1.008 1.008 0 00-.083-.394l-1.382-3.464h-6.207l-.746 1.985a3.86 3.86 0 00-.291 1.253 1.188 1.188 0 00.498.93c.411.27.894.403 1.382.38h.539v.83h-5.805v-.83a2.395 2.395 0 001.589-.352c.468-.425.817-.97 1.009-1.577l5.364-13.841zm-.318 3.14l-2.875 7.28h5.653l-2.778-7.28zm12.151-2.788h3.829l9.676 12.813v-9.279a2.982 2.982 0 00-.622-2.07 2.273 2.273 0 00-.791-.506 2.242 2.242 0 00-.923-.142v-.816h5.612v.816a2.527 2.527 0 00-1.285.254 2.054 2.054 0 00-.747.873 3.167 3.167 0 00-.304 1.408v12.954h-1.023l-9.994-13.348v9.856a2.712 2.712 0 00.663 2 2.869 2.869 0 002.046.675v.831h-6.11v-.83a2.518 2.518 0 001.825-.761 2.517 2.517 0 00.663-1.774V35.2l-.179-.21a3.269 3.269 0 00-.774-.719 1.893 1.893 0 00-.802-.155h-.733l-.027-.76zm20.721 0h7.326v.816h-1.562a1.107 1.107 0 00-.774.268.9.9 0 00-.263.676v7.575l6.027-6.561c.299-.283.482-.67.512-1.084a.698.698 0 00-.346-.62 2.122 2.122 0 00-1.175-.254h-.442v-.816h6.566v.816h-.511a3.517 3.517 0 00-1.452.395 5.145 5.145 0 00-1.451 1.112l-3.705 3.943 5.308 7.97c.225.388.537.717.912.957.347.193.738.29 1.134.281h.581v.831h-7.23v-.83h.816c.406.025.814-.027 1.202-.156.194-.093.29-.22.29-.38a.819.819 0 00-.124-.422l-4.423-6.618-2.502 2.746v4.013a.663.663 0 00.207.549c.241.178.532.271.829.267h1.562v.831h-7.326v-.83h1.382c.285.024.57-.056.802-.226a.77.77 0 00.263-.591V34.99a.683.683 0 00-.291-.591 1.66 1.66 0 00-.995-.225h-1.189l.042-.817zm26.762-.352h.663l5.792 14.869c.106.28.297.52.546.682.249.162.542.239.837.219h.497v.83h-6.289v-.83h.511c.472.031.944-.046 1.382-.225a.499.499 0 00.277-.465 1.321 1.321 0 00-.069-.394l-1.383-3.464h-6.248l-.746 1.985a3.858 3.858 0 00-.29 1.253 1.2 1.2 0 00.483.93 2.35 2.35 0 001.383.38h.553v.83h-5.806v-.83a2.44 2.44 0 001.479-.408c.459-.43.802-.973.995-1.577l5.433-13.785zm-.318 3.14l-2.875 7.28h5.653l-2.778-7.28zM56.579.577h9.082l5.114 15.56L75.876.646h9.317v1.409h-2.018a1.486 1.486 0 00-1.037.281 1.304 1.304 0 00-.29.972V20.81a1.118 1.118 0 00.318.915c.356.264.79.394 1.23.366h1.797V23.5H73.706v-1.408h2.17a1.17 1.17 0 00.913-.338c.219-.261.328-.6.304-.943V2.014l-7.16 21.529H68.55L61.445 1.83v16.785c-.018.438.053.875.207 1.284.155.41.39.782.691 1.095a4.109 4.109 0 002.599 1.098V23.5h-8.294v-1.408a3.51 3.51 0 002.46-1.126 3.703 3.703 0 00.871-2.535V3.591a1.785 1.785 0 00-.318-1.268 1.84 1.84 0 00-1.23-.31H56.58V.578zM98.934 0l8.459 20.614c.149.457.423.863.788 1.169.336.223.733.331 1.134.31h.815V23.5H99.528v-1.408h.995a3.524 3.524 0 001.604-.253.796.796 0 00.442-.704 2.08 2.08 0 00-.18-.789l-1.741-4.224h-8.433l-.801 1.93a5.212 5.212 0 00-.512 1.802 2.074 2.074 0 00.733 1.647 2.975 2.975 0 002.004.62h.72v1.408h-8.571V22.12h.497a2.214 2.214 0 001.452-.52 4.966 4.966 0 001.382-1.915L97.219 0h1.715zm-2.447 5.815l-3.622 8.758h7.188l-3.566-8.758zM111.098.577h12.137c2.022-.045 4.021.44 5.806 1.408a10.087 10.087 0 013.912 4.07 12.285 12.285 0 011.382 5.956 12.868 12.868 0 01-1.299 5.97 9.774 9.774 0 01-3.871 4.041 10.822 10.822 0 01-5.529 1.507h-12.579V22.12h1.866a1.357 1.357 0 001.037-.38 1.5 1.5 0 00.359-1.056V3.351a1.271 1.271 0 00-.373-1.014 1.856 1.856 0 00-1.231-.323h-1.658l.041-1.437zm11.059 21.515a6.476 6.476 0 003.704-1.07 5.988 5.988 0 002.337-2.928c.569-1.862.812-3.812.718-5.76a18.052 18.052 0 00-.843-6.28 6.153 6.153 0 00-2.281-3.111 7.961 7.961 0 00-4.257-.93 4.258 4.258 0 00-1.922.268 1.083 1.083 0 00-.387.972v17.39c-.036.395.072.791.304 1.111.276.242.633.363.996.338h1.631zM135.704.577h19.629l.442 8.026h-1.382a13.552 13.552 0 00-1.175-4.097 4.591 4.591 0 00-1.866-1.859 6.207 6.207 0 00-3.014-.633h-3.069a1.472 1.472 0 00-1.036.295.98.98 0 00-.332.803v7.955h1.064a3.66 3.66 0 001.49-.236 3.71 3.71 0 001.275-.82 5.414 5.414 0 001.175-3.393h1.382v10.687h-1.382a5.962 5.962 0 00-.995-3.745 3.961 3.961 0 00-1.408-.871 3.9 3.9 0 00-1.634-.214h-.87v8.449a.898.898 0 00.331.788c.418.25.899.367 1.383.338h2.764a6.04 6.04 0 002.467-.425 6.122 6.122 0 002.095-1.391 9.199 9.199 0 002.198-5.478h1.382l-.414 8.787h-20.5v-1.408h2.018a1.357 1.357 0 001.05-.352 1.32 1.32 0 00.36-.958V3.112a.984.984 0 00-.36-.831 2.31 2.31 0 00-1.285-.267h-1.783V.577zm31.392 0h11.557v1.408h-2.088a1.46 1.46 0 00-.981.282 1.032 1.032 0 00-.304.803v17.797a1.105 1.105 0 00.318.887 1.84 1.84 0 001.189.338h1.866V23.5h-11.557v-1.408h1.77c.45.045.902-.064 1.285-.31.129-.111.229-.253.294-.412.065-.159.092-.331.08-.503V3.295a1.248 1.248 0 00-.346-.972 1.582 1.582 0 00-1.064-.31h-2.019V.578zm13.865 0h7.036l12.206 15.742V5.632a3.554 3.554 0 00-.884-2.534 3.644 3.644 0 00-2.516-1.07V.62h8.294v1.408a3.686 3.686 0 00-2.475 1.056 3.793 3.793 0 00-.801 2.548v17.91h-1.797l-13.907-18.12v12.546a4.381 4.381 0 00.968 3.14 3.25 3.25 0 002.405.986h.387V23.5h-9.109v-1.408h.636c.431.007.859-.088 1.249-.276a2.845 2.845 0 001.004-.808 4.16 4.16 0 00.912-2.816V3.393a3.16 3.16 0 00-1.133-1.037 3.093 3.093 0 00-1.479-.37h-.996V.576z" fill="#8E431E"/></g><defs><clipPath id="clip0"><path fill="#fff" d="M0 0h205v50H0z"/></clipPath></defs></svg>