<svg width="18" height="18" fill="none" xmlns="http://www.w3.org/2000/svg"><path d="M13.125 1.5a3.375 3.375 0 012.213 5.923 6.741 6.741 0 01-.223 5.18 6.75 6.75 0 01-12.453-5.18 3.375 3.375 0 115.094-4.308 6.788 6.788 0 012.49 0A3.371 3.371 0 0113.125 1.5zm0 1.5c-.617 0-1.181.3-1.528.789l-.072.108-.538.882-1.017-.19a5.287 5.287 0 00-1.7-.039l-.237.04-1.017.19-.54-.882a1.875 1.875 0 10-2.929 2.3l.099.093.78.678-.356.971a5.25 5.25 0 109.944.248l-.083-.248-.357-.971.78-.678A1.875 1.875 0 0013.125 3zM7.5 9.75a1.5 1.5 0 003 0H12a3 3 0 01-6 0h1.5z" fill="#B1B1B1"/></svg>