<svg width="18" height="18" fill="none" xmlns="http://www.w3.org/2000/svg"><path d="M14.25 15H3.75v.75a.75.75 0 01-.75.75h-.75a.75.75 0 01-.75-.75v-5.625l-.932-.232A.75.75 0 010 9.165v-.54a.375.375 0 01.375-.375H1.5l1.86-4.341A1.5 1.5 0 014.74 3h8.52a1.5 1.5 0 011.379.909L16.5 8.25h1.125a.375.375 0 01.375.375v.54a.75.75 0 01-.568.728l-.932.232v5.625a.75.75 0 01-.75.75H15a.75.75 0 01-.75-.75V15zm.75-1.5V9.75H3v3.75h12zM4.108 8.25h9.784a.75.75 0 00.696-1.028L13.5 4.5h-9L3.412 7.222a.75.75 0 00.696 1.028zM3.75 10.5c1.738 0 2.91.566 3.514 1.698a.375.375 0 01-.33.552H4.5a.75.75 0 01-.75-.75v-1.5zm10.5 0V12a.75.75 0 01-.75.75h-2.434a.375.375 0 01-.33-.552c.604-1.133 1.775-1.698 3.514-1.698z" fill="#B1B1B1"/></svg>