<svg width="18" height="18" fill="none" xmlns="http://www.w3.org/2000/svg"><path d="M9 1.5a7.5 7.5 0 110 15 7.5 7.5 0 010-15zM10.252 12H7.747l-1.034 1.423.415 1.28a6.015 6.015 0 003.744 0l.415-1.28L10.252 12zM3.97 8.154l-.969.703L3 9c0 1.297.412 2.498 1.112 3.48h1.432l.992-1.365-.77-2.377-1.796-.584zm10.06 0l-1.795.584-.771 2.377.991 1.365h1.433A5.973 5.973 0 0015 9l-.002-.143-.968-.703zM9 7.152L7.242 8.428l.672 2.072h2.171l.672-2.072L9 7.152zm1.718-3.902l-.968.705v1.888l2.02 1.467 1.68-.545.415-1.277a6.01 6.01 0 00-3.147-2.238zm-3.437 0a6.01 6.01 0 00-3.146 2.239l.415 1.276 1.68.545 2.02-1.467V3.955l-.969-.705z" fill="#B1B1B1"/></svg>